# xmcd
#
# Track frame offsets: 
#        150
#        15791
#        31432
#
# Disc length: 625 seconds
#
# Revision: 0
# Processed by: cddbd v1.5.2PL0 Copyright (c) Steve Scherf et al.
# Submitted via: ExactAudioCopyFreeDBPlugin 1.0
#
DISCID=13026f03
DTITLE=Garth Brooks - Good Ride Cowboy
DYEAR=2005
DGENRE=Country
TTITLE0=Good Ride Cowboy
TTITLE1=Good Ride Cowboy
TTITLE2=Good Ride Cowboy
EXTD=
EXTT0=
EXTT1=
EXTT2=
PLAYORDER=
